<svg width="60" height="13" viewBox="0 0 60 13" fill="none" xmlns="http://www.w3.org/2000/svg">
<path d="M18.5957 0C14.7051 0 11.8301 2.53208 11.8301 6.5C11.8301 10.4679 14.7657 13 18.5957 13C22.4258 13 25.3614 10.5419 25.3614 6.5C25.3614 2.4581 22.4863 0 18.5957 0ZM18.5957 12.008C15.9191 12.008 13.8678 9.92318 13.8678 6.5C13.8678 3.07682 15.8753 0.991981 18.5957 0.991981C21.3161 0.991981 23.3236 3.13735 23.3236 6.5C23.3236 9.86265 21.2724 12.008 18.5957 12.008Z" fill="white"/>
<path d="M33.1591 8.00652C33.1591 9.40538 33.1894 10.9791 33.1894 10.9791C33.1894 11.6718 33.2902 12.7008 33.297 12.7142H31.1079C31.1079 12.7142 31.2323 11.6752 31.2323 11.1573C31.2323 10.7538 31.3164 9.30786 31.2424 8.2419C30.4185 6.5942 27.2677 1.94702 27.2677 1.94702C26.7095 1.17361 26.0303 0.289238 26.0303 0.289238C26.0303 0.289238 26.844 0.319501 27.3854 0.319501C27.9268 0.319501 28.7675 0.289238 28.7675 0.289238C28.7675 0.292601 32.6547 6.9641 32.6547 6.9641C32.6547 6.9641 37.0598 0.295963 37.0497 0.289238L37.7188 0.302686L38.5427 0.289238C38.5427 0.289238 37.8836 1.103 37.6919 1.38882C36.3267 3.42995 34.3125 6.1268 33.1591 8.00652Z" fill="white"/>
<path d="M43.8994 0.285873L47.2654 8.52437C47.595 9.34149 48.0355 10.3301 48.5903 11.4969C48.7988 11.9408 48.9972 12.3477 49.1855 12.7109H46.5559C46.5559 12.7109 46.5391 12.6268 46.4853 12.4587C46.0751 11.1472 45.5404 9.68448 45.5404 9.68448C45.4496 9.67103 45.184 9.65086 44.7636 9.62059C44.4038 9.60378 43.8927 9.59369 43.2067 9.59369H41.4615C40.8865 9.59369 40.4359 9.60378 40.1097 9.62059L39.7028 9.64749L39.4237 9.6643L38.6302 11.5743L38.3242 12.2939L38.1628 12.7075H36.7773C36.7773 12.7075 36.8715 12.5259 36.8984 12.4721C37.5003 11.275 38.2468 9.69121 38.5764 8.96487L39.037 7.93927L42.3762 0.285873C42.3762 0.285873 42.9444 0.302688 43.1294 0.302688C43.3278 0.302688 43.8994 0.285873 43.8994 0.285873ZM39.8037 8.65887C40.1232 8.67569 40.4023 8.68578 40.6511 8.68578H43.2168C44.2861 8.68578 44.9419 8.67569 45.1873 8.65887L42.5577 2.08489L39.8037 8.65887Z" fill="white"/>
<path d="M51.6003 4.37486C51.6003 3.55773 51.5768 2.62964 51.5297 1.58386C51.5163 1.33166 51.4961 0.901238 51.4658 0.285873C51.8727 0.299324 52.3267 0.309414 52.5251 0.309414C52.8378 0.309414 53.1438 0.299324 53.7457 0.285873C53.6986 1.1568 53.6616 2.02773 53.6381 2.89865C53.6246 3.54765 53.6213 4.03859 53.6213 4.37486V8.74294C53.6213 9.18009 53.628 9.7551 53.6381 10.4613L53.665 11.4431L53.6751 11.7861C55.3867 11.7559 56.6746 11.7155 57.5388 11.6617C58.0297 11.6382 58.6014 11.6046 59.2504 11.5642V12.7176H51.4725C51.5028 12.1291 51.523 11.7155 51.5364 11.4768C51.5835 10.468 51.6071 9.56006 51.6071 8.74966V4.38158L51.6003 4.37486Z" fill="white"/>
<path d="M7.42137 7.223C7.08847 6.97753 6.69168 6.85311 6.23099 6.8094C7.18599 6.58074 7.91568 6.21421 8.45034 5.70981C9.00854 5.18187 9.28764 4.43873 9.28764 3.6754C9.28764 2.58927 8.95138 1.80577 8.23177 1.18705C7.42137 0.50779 6.15029 0.198425 4.46896 0.198425C3.95112 0.198425 3.31893 0.211878 2.56906 0.242141C1.80574 0.272405 0.95163 0.285852 0 0.285852C0 0.285852 0.171498 2.0008 0.171498 4.38492V8.21162C0.171498 8.57142 0.164772 9.10608 0.154684 9.8156C0.131146 10.7639 0.10088 11.5978 0.0638912 12.3107C0.0470779 12.5797 0.0336271 12.7176 0.0269018 12.7176H2.32359C2.29333 12.425 2.26306 12.0081 2.2328 11.4734C2.179 10.5789 2.1521 9.67437 2.1521 8.76309V7.14566C2.1521 7.14566 3.71909 7.13893 4.14279 7.13893C4.27729 7.13893 4.47569 7.15911 4.664 7.20955C6.92034 7.79801 7.16245 11.9711 9.51967 12.7815C9.94336 12.9261 10.8076 12.9462 11.2212 12.4889C9.08588 11.2884 8.95138 8.35621 7.42137 7.223ZM4.0789 6.32181C3.75944 6.3588 3.38956 6.37561 2.9625 6.37561C2.63632 6.37561 2.36731 6.36552 2.1521 6.34871V1.17023C2.58252 1.15006 3.95784 1.10634 4.17978 1.10634C5.14822 1.10634 5.90145 1.32155 6.43948 1.75533C6.99095 2.21265 7.26669 2.77422 7.26669 3.68213V3.79982C7.26669 4.61694 6.9237 5.2424 6.24108 5.67282C5.70642 6.02253 4.98681 6.23774 4.0789 6.32181Z" fill="white"/>
</svg>
