<svg width="34" height="33" viewBox="0 0 34 33" fill="none" xmlns="http://www.w3.org/2000/svg">
<path d="M19.6932 12.8111V12.6908C19.6932 11.758 19.4091 11.1763 18.8407 10.7049C18.2858 10.2603 17.5068 10.0363 16.5106 10.0363C16.2832 10.0363 14.8691 10.0798 14.4244 10.0998V15.4355C14.6484 15.4556 14.9259 15.4622 15.2602 15.4622C15.6982 15.4622 16.0826 15.4422 16.4103 15.4054C17.343 15.3185 18.0852 15.0978 18.6368 14.7368C19.3422 14.2921 19.6932 13.6469 19.6932 12.8078V12.8111Z" fill="white"/>
<path d="M17.1001 5.5696C11.1995 5.5696 6.41876 10.3503 6.41876 16.2509C6.41876 22.1516 11.1995 26.9323 17.1001 26.9323C23.0008 26.9323 27.7815 22.1516 27.7815 16.2509C27.7815 10.3503 23.0008 5.5696 17.1001 5.5696ZM22.0145 22.058C19.5841 21.2222 19.34 16.9263 17.0132 16.3212C16.8193 16.271 16.6154 16.2509 16.4749 16.2509C16.0403 16.2509 14.4256 16.2576 14.4256 16.2576V17.9225C14.4256 18.8619 14.4523 19.7947 14.5092 20.7141C14.5393 21.2657 14.5694 21.6902 14.6028 21.9945H12.2358C12.2358 21.9945 12.2559 21.8541 12.2726 21.5766C12.3094 20.8411 12.3395 19.9852 12.3662 19.0057C12.3796 18.2769 12.3863 17.7253 12.3863 17.3542V13.4126C12.3863 10.9554 12.2091 9.19023 12.2091 9.19023C13.1853 9.19023 14.0679 9.17685 14.8535 9.14342C15.6258 9.11333 16.2777 9.09662 16.8093 9.09662C18.541 9.09662 19.8515 9.41756 20.684 10.1163C21.4261 10.7548 21.7705 11.5605 21.7705 12.6805C21.7705 13.4661 21.483 14.2317 20.908 14.7733C20.3563 15.2915 19.6075 15.6726 18.6246 15.9066C19.0993 15.9501 19.5072 16.0771 19.8515 16.3312C21.4295 17.4979 21.5632 20.5201 23.763 21.7538C23.3384 22.2252 22.4492 22.2051 22.0112 22.0546L22.0145 22.058Z" fill="white"/>
<path d="M28.8773 20.0556C28.7336 20.5003 28.5631 20.9349 28.3692 21.3528C28.2388 21.6336 28.2087 21.9479 28.299 22.2454L29.5727 26.5514C29.7566 26.3307 29.9338 26.1034 30.1043 25.8727C30.3316 25.5652 30.3918 25.1673 30.2848 24.8029L28.8807 20.0556H28.8773Z" fill="white"/>
<path d="M27.1893 23.4088C27.0456 23.6094 26.8951 23.8066 26.7414 23.9972C26.4706 24.3315 26.3636 24.7728 26.4873 25.1873L27.5036 28.6308C27.634 28.5204 27.761 28.4101 27.8881 28.2964C28.2458 27.9755 28.3929 27.4807 28.2558 27.0194L27.1893 23.4054V23.4088Z" fill="white"/>
<path d="M25.1669 25.6319C25.0432 25.7389 24.9195 25.8425 24.7892 25.9428C24.4147 26.2403 24.2643 26.7385 24.4013 27.1965L25.2873 30.1986C25.4277 30.1184 25.5648 30.0348 25.6985 29.9479C26.0662 29.7172 26.2401 29.2692 26.1164 28.8547L25.1636 25.6319H25.1669Z" fill="white"/>
<path d="M22.9392 27.1662C22.8422 27.2163 22.7453 27.2664 22.6483 27.3166C22.197 27.5439 21.973 28.0588 22.1167 28.5402L22.9425 31.3351C23.0528 31.2916 23.1598 31.2481 23.2668 31.2047C23.7047 31.0241 23.9388 30.5494 23.805 30.0947L22.9392 27.1628V27.1662Z" fill="white"/>
<path d="M20.5451 28.1359C20.4649 28.1593 20.3813 28.1827 20.2977 28.2061C19.8096 28.3365 19.5254 28.838 19.6658 29.3227L20.4782 32.0775C20.5785 32.0574 20.6788 32.034 20.7824 32.0106C21.2405 31.9003 21.5146 31.4289 21.3809 30.9743L20.5417 28.1359H20.5451Z" fill="white"/>
<path d="M33.0554 16.2508L33.1858 15.8028C33.236 15.6323 33.2594 15.4551 33.2493 15.2779C33.1958 14.392 33.0721 13.5261 32.8816 12.6837L31.8285 16.2474L32.8816 19.8112C33.0721 18.9688 33.1958 18.1029 33.2493 17.217C33.2594 17.0398 33.236 16.8626 33.1858 16.6921L33.0554 16.2441V16.2508Z" fill="white"/>
<path d="M28.3689 11.1495C28.5628 11.5708 28.7333 12.002 28.8771 12.4467L30.2812 7.6994C30.3882 7.335 30.328 6.93716 30.104 6.62959C29.9335 6.39892 29.7563 6.17158 29.5725 5.95094L28.2987 10.2569C28.2118 10.5544 28.2419 10.8687 28.3689 11.1495Z" fill="white"/>
<path d="M27.1893 9.09338L28.2558 5.47944C28.3929 5.01809 28.2458 4.5233 27.8881 4.20236C27.761 4.08869 27.634 3.97837 27.5036 3.86804L26.4873 7.31148C26.3636 7.72603 26.4706 8.16733 26.7414 8.50164C26.8951 8.6922 27.0456 8.88945 27.1893 9.09004V9.09338Z" fill="white"/>
<path d="M24.7879 6.55924C24.915 6.65954 25.042 6.76652 25.1657 6.87015L26.1185 3.64736C26.2422 3.22947 26.0684 2.78483 25.7006 2.55415C25.5635 2.46723 25.4265 2.38365 25.2894 2.30342L24.4035 5.30556C24.2664 5.76357 24.4169 6.2617 24.7913 6.55924H24.7879Z" fill="white"/>
<path d="M22.6594 5.19198C22.753 5.23879 22.8466 5.28893 22.9369 5.33574L23.8028 2.40714C23.9365 1.95582 23.7058 1.47775 23.2712 1.29722C23.1609 1.25376 23.0539 1.20695 22.9436 1.16683L22.1178 3.9617C21.9741 4.4498 22.2081 4.9613 22.6594 5.19198Z" fill="white"/>
<path d="M20.2858 4.2958C20.3727 4.3192 20.4597 4.3426 20.5466 4.36935L21.3824 1.53436C21.5161 1.08303 21.2453 0.604965 20.7873 0.497984C20.687 0.474582 20.5834 0.451179 20.4831 0.427777L19.6707 3.18253C19.5303 3.6606 19.8078 4.16541 20.2892 4.2958H20.2858Z" fill="white"/>
<path d="M30.4063 16.2512L31.9943 10.8754C32.098 10.5244 32.0846 10.1433 31.9375 9.80564C31.7737 9.43121 31.5998 9.06346 31.4093 8.70575L29.4703 15.275C29.4502 15.3452 29.4402 15.4188 29.4469 15.4923C29.4636 15.7464 29.4836 15.9971 29.4836 16.2546C29.4836 16.512 29.4669 16.7627 29.4469 17.0168C29.4402 17.0904 29.4469 17.1639 29.4703 17.2341L31.4093 23.8034C31.5998 23.4457 31.777 23.0779 31.9375 22.7035C32.0846 22.3658 32.098 21.9847 31.9943 21.6337L30.4063 16.2579V16.2512Z" fill="white"/>
<path d="M5.82855 21.356C5.63465 20.9347 5.46414 20.5035 5.32039 20.0588L3.91627 24.8061C3.80929 25.1705 3.86946 25.5683 4.09345 25.8759C4.26395 26.1066 4.44115 26.3339 4.62502 26.5546L5.89876 22.2486C5.98568 21.9511 5.95559 21.6368 5.82855 21.356Z" fill="white"/>
<path d="M7.00941 23.4086L5.94294 27.0225C5.80587 27.4839 5.95297 27.9787 6.31069 28.2996C6.43773 28.4133 6.56477 28.5236 6.69515 28.6339L7.71147 25.1905C7.83517 24.776 7.72818 24.3347 7.45739 24.0003C7.3036 23.8098 7.15316 23.6125 7.00941 23.4119V23.4086Z" fill="white"/>
<path d="M9.4087 25.9428C9.28166 25.8425 9.15462 25.7355 9.03093 25.6319L8.07813 28.8547C7.95443 29.2726 8.12828 29.7172 8.49602 29.9479C8.63309 30.0348 8.77016 30.1184 8.90723 30.1986L9.79316 27.1965C9.93023 26.7385 9.77979 26.2403 9.40536 25.9428H9.4087Z" fill="white"/>
<path d="M11.536 27.3135C11.4423 27.2666 11.3487 27.2165 11.2585 27.1697L10.3926 30.0983C10.2589 30.5496 10.4895 31.0277 10.9242 31.2082C11.0345 31.2517 11.1415 31.2985 11.2518 31.3386L12.0775 28.5437C12.2213 28.0556 11.9873 27.5441 11.536 27.3135Z" fill="white"/>
<path d="M13.912 28.2095C13.8251 28.1861 13.7382 28.1627 13.6512 28.1359L12.8155 30.9709C12.6817 31.4222 12.9525 31.9003 13.4105 32.0073C13.5108 32.0307 13.6145 32.0541 13.7148 32.0775L14.5271 29.3227C14.6676 28.8447 14.3901 28.3398 13.9087 28.2095H13.912Z" fill="white"/>
<path d="M4.75593 17.0134C4.73921 16.7626 4.71916 16.5085 4.71916 16.2511C4.71916 15.9937 4.73587 15.743 4.75593 15.4889C4.76262 15.4153 4.75593 15.3418 4.73253 15.2716L2.7935 8.7023C2.60294 9.06001 2.42575 9.42776 2.26528 9.80219C2.11818 10.1399 2.10481 10.521 2.20845 10.872L3.79644 16.2478L2.20845 21.6236C2.10481 21.9746 2.11818 22.3557 2.26528 22.6934C2.4291 23.0678 2.60294 23.4355 2.7935 23.7933L4.73253 17.224C4.75258 17.1538 4.76262 17.0802 4.75593 17.0067V17.0134Z" fill="white"/>
<path d="M5.31941 12.4499C5.46316 12.0052 5.63367 11.5706 5.82757 11.1527C5.95795 10.8719 5.98804 10.5576 5.89778 10.2601L4.62404 5.95412C4.44017 6.17477 4.26298 6.4021 4.09247 6.63278C3.86514 6.94035 3.80497 7.33818 3.91195 7.70258L5.31607 12.4499H5.31941Z" fill="white"/>
<path d="M7.00941 9.09349C7.15316 8.8929 7.3036 8.69565 7.45739 8.50509C7.72818 8.17078 7.83517 7.72948 7.71147 7.31493L6.69515 3.87149C6.56477 3.98181 6.43773 4.09214 6.31069 4.20581C5.95297 4.52675 5.80587 5.02153 5.94294 5.48289L7.00941 9.09683V9.09349Z" fill="white"/>
<path d="M9.03179 6.87334C9.15549 6.76636 9.27919 6.66272 9.40957 6.56243C9.784 6.26489 9.93444 5.76676 9.79737 5.30875L8.91144 2.3066C8.77437 2.38684 8.63396 2.47041 8.50023 2.55734C8.13249 2.78801 7.95864 3.23599 8.08234 3.65054L9.03513 6.87334H9.03179Z" fill="white"/>
<path d="M11.2581 5.33574C11.3551 5.28559 11.452 5.23544 11.549 5.18529C12.0003 4.95796 12.2243 4.44312 12.0805 3.9617L11.2548 1.16683C11.1445 1.21029 11.0375 1.25376 10.9305 1.29722C10.4925 1.47775 10.2585 1.95247 10.3923 2.40714L11.2581 5.33908V5.33574Z" fill="white"/>
<path d="M13.651 4.36935C13.7312 4.34594 13.8148 4.32254 13.8984 4.29914C14.3865 4.16876 14.6706 3.66729 14.5302 3.18253L13.7178 0.427777C13.6175 0.447836 13.5173 0.471238 13.4136 0.49464C12.9556 0.604964 12.6815 1.07635 12.8152 1.53102L13.6543 4.36935H13.651Z" fill="white"/>
<path d="M2.36886 16.2543L1.31576 12.6906C1.1252 13.533 1.00151 14.3989 0.94802 15.2848C0.93799 15.462 0.961388 15.6392 1.01154 15.8097L1.14192 16.2577L1.01154 16.7057C0.961388 16.8762 0.93799 17.0534 0.94802 17.2305C1.00151 18.1165 1.1252 18.9824 1.31576 19.8248L2.36886 16.261V16.2543Z" fill="white"/>
<path d="M16.3413 3.35986C16.3848 3.66074 16.6255 3.88139 16.913 3.88139H17.2941C17.5783 3.88139 17.8224 3.66074 17.8658 3.35986L18.1968 0.872561C18.2637 0.41455 17.9327 0 17.4947 0H16.7124C16.2778 0 15.9435 0.41455 16.0104 0.872561L16.3413 3.35986Z" fill="white"/>
<path d="M17.8573 29.1423C17.8139 28.8414 17.5732 28.6207 17.2857 28.6207H16.9045C16.6204 28.6207 16.3763 28.8414 16.3329 29.1423L16.0019 31.6296C15.935 32.0876 16.266 32.5021 16.704 32.5021H17.4862C17.9209 32.5021 18.2552 32.0876 18.1883 31.6296L17.8573 29.1423Z" fill="white"/>
</svg>
