<svg width="40" height="40" viewBox="0 0 40 40" fill="none" xmlns="http://www.w3.org/2000/svg">
<rect width="40" height="40" rx="10" fill="#00534C"/>
<path fill-rule="evenodd" clip-rule="evenodd" d="M18.514 10.774C18.698 10.724 18.9 10.743 19.078 10.842C19.44 11.044 19.569 11.501 19.368 11.863C18.79 12.897 18.462 14.088 18.462 15.356C18.462 19.32 21.68 22.538 25.644 22.538C26.911 22.538 28.101 22.21 29.134 21.634C29.496 21.432 29.953 21.562 30.155 21.924C30.218 22.037 30.249 22.161 30.25 22.282C30.251 22.347 30.243 22.413 30.227 22.479C29.172 26.655 25.387 29.75 20.885 29.75C15.567 29.75 11.25 25.433 11.25 20.115C11.25 15.629 14.323 11.855 18.465 10.788L18.514 10.774ZM17.348 12.788C14.628 14.105 12.75 16.892 12.75 20.115C12.75 24.605 16.395 28.25 20.885 28.25C24.107 28.25 26.895 26.372 28.212 23.652C27.4 23.903 26.538 24.038 25.644 24.038C20.852 24.038 16.962 20.148 16.962 15.356C16.962 14.462 17.097 13.6 17.348 12.788Z" fill="white"/>
</svg>
